<svg xmlns="http://www.w3.org/2000/svg" viewBox="0 0 24 24" fill="none" stroke="#dc2626" stroke-width="2" stroke-linecap="round" stroke-linejoin="round">
  <path d="M17 9a2 2 0 0 1 2-2h1a2 2 0 0 0 2-2V4" />
  <path d="M7 9a2 2 0 0 0-2-2H4a2 2 0 0 1-2-2V4" />
  <rect x="5" y="9" width="14" height="10" rx="4" />
  <path d="M5 13H2" />
  <path d="M5 16H2" />
  <path d="M19 13h3" />
  <path d="M19 16h3" />
  <path d="M7 12h10" stroke-width="3" />
  <path d="M8 12v2h2v-2" stroke-width="2" fill="#dc2626" />
  <path d="M14 12v2h2v-2" stroke-width="2" fill="#dc2626" />
</svg>
